<svg width="438" height="462" viewBox="0 0 438 462" fill="none" xmlns="http://www.w3.org/2000/svg">
<g clip-path="url(#clip0)">
<path d="M313.208 102.257H310.847V37.4872C310.847 32.5643 309.879 27.6896 307.997 23.1415C306.116 18.5933 303.358 14.4607 299.882 10.9797C296.406 7.4987 292.279 4.73741 287.737 2.85351C283.195 0.969608 278.327 -1.82513e-05 273.411 2.5766e-10H136.375C131.459 -1.19029e-05 126.591 0.969619 122.049 2.85352C117.507 4.73743 113.38 7.49872 109.904 10.9797C106.428 14.4607 103.67 18.5933 101.789 23.1415C99.9075 27.6896 98.9392 32.5643 98.9392 37.4872V392.821C98.9392 397.744 99.9075 402.619 101.789 407.167C103.67 411.715 106.428 415.848 109.904 419.329C113.38 422.81 117.507 425.571 122.049 427.455C126.591 429.339 131.459 430.309 136.375 430.309H273.411C278.327 430.309 283.195 429.339 287.737 427.455C292.279 425.571 296.406 422.81 299.882 419.329C303.358 415.848 306.116 411.715 307.997 407.167C309.879 402.619 310.847 397.744 310.847 392.821V148.362H313.208V102.257Z" fill="#3F3D56"/>
<path d="M433.421 412.641H0.147339V413.85H433.421V412.641Z" fill="#3F3D56"/>
<path opacity="0.2" d="M302.879 37.7506V392.562C302.883 396.24 302.162 399.882 300.758 403.28C299.354 406.678 297.295 409.765 294.698 412.366C292.101 414.966 289.018 417.028 285.625 418.434C282.231 419.84 278.594 420.561 274.922 420.558H137.228C133.556 420.561 129.919 419.838 126.526 418.432C123.133 417.026 120.05 414.964 117.453 412.364C114.856 409.764 112.797 406.677 111.393 403.279C109.989 399.881 109.268 396.239 109.27 392.562V37.7506C109.268 34.0734 109.989 30.4317 111.393 27.0339C112.797 23.6361 114.856 20.5488 117.453 17.9486C120.05 15.3485 123.133 13.2864 126.526 11.8804C129.919 10.4744 133.556 9.752 137.228 9.75459H153.931C153.109 11.7741 152.795 13.9652 153.017 16.1348C153.239 18.3044 153.991 20.386 155.206 22.1961C156.421 24.0063 158.062 25.4894 159.984 26.5148C161.907 27.5401 164.051 28.0764 166.229 28.0762H244.738C246.916 28.0764 249.06 27.5401 250.983 26.5148C252.905 25.4894 254.546 24.0063 255.761 22.1961C256.976 20.386 257.728 18.3044 257.95 16.1348C258.172 13.9652 257.858 11.7741 257.036 9.75459H274.922C278.594 9.75129 282.231 10.4732 285.625 11.8789C289.018 13.2847 292.101 15.3467 294.698 17.9471C297.295 20.5474 299.354 23.635 300.758 27.0331C302.162 30.4312 302.883 34.0732 302.879 37.7506Z" fill="black"/>
<path d="M43.184 413.786L42.5364 413.543C42.3941 413.489 28.2296 408.055 21.5944 395.732C14.9588 383.41 18.2079 368.573 18.2415 368.425L18.3945 367.749L19.0418 367.993C19.1841 368.046 33.3483 373.481 39.9838 385.803C46.6193 398.125 43.3702 412.962 43.3366 413.11L43.184 413.786ZM22.6569 395.159C28.2667 405.577 39.4599 410.918 42.2959 412.137C42.8351 409.093 44.5261 396.785 38.9213 386.376C33.317 375.969 22.1194 370.62 19.2822 369.398C18.7427 372.444 17.0523 384.751 22.6569 395.159Z" fill="#3F3D56"/>
<path d="M26.6652 391.41C38.5896 398.594 43.1821 412.863 43.1821 412.863C43.1821 412.863 28.4413 415.485 16.5169 408.301C4.59247 401.117 0 386.848 0 386.848C0 386.848 14.7408 384.226 26.6652 391.41Z" fill="#5283CE"/>
<path d="M144.011 9.75459V420.558H137.228C135.454 420.561 133.684 420.393 131.942 420.057V10.2561C133.684 9.9198 135.454 9.75184 137.228 9.7546L144.011 9.75459Z" fill="#3F3D56"/>
<path d="M209.183 28.0762H197.114V420.558H209.183V28.0762Z" fill="#3F3D56"/>
<path d="M284.613 11.4828V418.83C281.511 419.977 278.229 420.562 274.922 420.558H272.544V9.75457H274.922C278.229 9.7503 281.511 10.3355 284.613 11.4828Z" fill="#3F3D56"/>
<path d="M302.879 78.1584H109.27V90.2439H302.879V78.1584Z" fill="#3F3D56"/>
<path d="M302.879 215.329H109.27V227.414H302.879V215.329Z" fill="#3F3D56"/>
<path d="M296.682 283.007H199.528V295.093H296.682V283.007Z" fill="#3F3D56"/>
<path d="M302.88 129.522H197.114V141.607H302.88V129.522Z" fill="#3F3D56"/>
<path d="M205.834 89.4344L204.434 90.2441L197.114 94.474L144.011 125.177L131.942 132.157L109.271 145.263V131.304L131.942 118.198L144.011 111.224L180.296 90.2441L197.114 80.5213L199.799 78.9683L205.834 89.4344Z" fill="#3F3D56"/>
<path d="M302.879 347.665H109.27V359.75H302.879V347.665Z" fill="#3F3D56"/>
<path d="M344.958 130.126C344.958 168.505 275.562 254.002 275.562 254.002C275.562 254.002 206.165 168.505 206.165 130.126C206.165 111.696 213.477 94.0202 226.491 80.988C239.505 67.9559 257.157 60.6345 275.562 60.6345C293.967 60.6345 311.618 67.9559 324.632 80.988C337.646 94.0202 344.958 111.696 344.958 130.126Z" fill="#5283CE"/>
<path opacity="0.2" d="M275.562 168.195C298.224 168.195 316.596 149.798 316.596 127.105C316.596 104.411 298.224 86.014 275.562 86.014C252.899 86.014 234.527 104.411 234.527 127.105C234.527 149.798 252.899 168.195 275.562 168.195Z" fill="black"/>
<path d="M274.213 143.325C282.656 143.325 289.5 136.471 289.5 128.017C289.5 119.562 282.656 112.709 274.213 112.709C265.77 112.709 258.925 119.562 258.925 128.017C258.925 136.471 265.77 143.325 274.213 143.325Z" fill="#5283CE"/>
<path d="M298.078 172.425C298.718 169.103 298.616 165.68 297.78 162.401C296.944 159.123 295.395 156.07 293.243 153.461C291.092 150.852 288.391 148.751 285.334 147.309C282.278 145.867 278.94 145.119 275.562 145.119C272.183 145.119 268.845 145.867 265.789 147.309C262.732 148.751 260.031 150.852 257.88 153.461C255.728 156.07 254.179 159.123 253.343 162.401C252.507 165.68 252.405 169.103 253.045 172.425H298.078Z" fill="#5283CE"/>
<path d="M347.878 74.1966C347.878 74.1966 336.975 70.2973 329.966 85.8944C322.957 101.491 312.054 118.648 312.054 118.648L318.285 120.208C318.285 120.208 319.842 109.29 323.736 107.73L322.179 121.768C322.179 121.768 368.906 138.145 389.933 120.208L389.154 114.749C389.154 114.749 392.269 115.529 392.269 120.208L394.606 117.868C394.606 117.868 392.269 113.189 385.26 106.95C380.66 102.856 379.079 95.0651 378.536 90.1943C378.129 86.1272 376.503 82.2782 373.874 79.1521C369.216 73.7465 360.728 68.0011 347.878 74.1966Z" fill="#DF3CCF"/>
<path d="M414.052 162.455C414.052 162.455 434.569 179.979 437.586 190.251C440.604 200.524 426.121 201.732 426.121 201.732L394.742 204.754C394.742 204.754 394.138 219.256 388.707 221.069C383.276 222.882 387.605 197.087 387.605 197.087L418.276 188.438L404.397 173.936L414.052 162.455Z" fill="#FBBEBE"/>
<path d="M318.104 180.583L315.691 212.609L302.415 266.994C302.415 266.994 290.346 291.769 300.605 292.373C310.863 292.978 310.26 268.807 310.26 268.807L329.57 217.444L331.38 182.396L318.104 180.583Z" fill="#FBBEBE"/>
<path d="M328.967 412.624V436.191L343.449 432.565L339.225 410.811L328.967 412.624Z" fill="#FBBEBE"/>
<path d="M406.208 412.624V436.191L420.69 432.565L416.466 410.811L406.208 412.624Z" fill="#FBBEBE"/>
<path d="M351.897 124.385C362.895 124.385 371.811 115.457 371.811 104.444C371.811 93.4312 362.895 84.5033 351.897 84.5033C340.899 84.5033 331.984 93.4312 331.984 104.444C331.984 115.457 340.899 124.385 351.897 124.385Z" fill="#FBBEBE"/>
<path d="M342.846 114.113C342.846 114.113 350.087 140.096 338.621 146.744C327.156 153.391 367.587 158.225 378.449 138.284C378.449 138.284 359.139 131.637 364.57 114.113H342.846Z" fill="#FBBEBE"/>
<path d="M328.966 149.765L325.346 148.556C325.346 148.556 318.104 151.578 318.104 157.016C318.104 162.455 316.897 184.208 316.897 184.208L333.19 186.021L328.966 149.765Z" fill="#575A89"/>
<path d="M331.38 214.391C331.38 214.391 311.467 239.802 311.467 270.62C311.467 301.438 316.294 413.228 316.294 413.228C316.294 413.228 334.397 421.688 345.259 411.415L354.915 284.518L392.932 415.645C392.932 415.645 411.035 419.271 419.483 413.228L403.19 328.63C403.19 328.63 402.587 228.32 384.483 221.069C366.38 213.818 331.38 214.391 331.38 214.391Z" fill="#2F2E41"/>
<path d="M344.656 428.939C344.656 428.939 328.966 420.48 327.76 431.961C326.553 443.442 325.949 450.693 325.949 450.693C325.949 450.693 324.139 464.592 341.035 461.57C357.932 458.549 351.897 450.089 351.897 450.089C351.897 450.089 345.863 440.421 345.863 438.004C345.863 435.586 344.656 428.939 344.656 428.939Z" fill="#2F2E41"/>
<path d="M404.664 428.664C404.664 428.664 418.942 417.989 421.82 429.168C424.697 440.347 426.358 447.431 426.358 447.431C426.358 447.431 430.187 460.912 413.03 460.409C395.874 459.905 400.602 450.649 400.602 450.649C400.602 450.649 405.153 440.198 404.799 437.807C404.445 435.416 404.664 428.664 404.664 428.664Z" fill="#2F2E41"/>
<path d="M386.897 141.305C386.897 141.305 394.742 137.075 402.587 146.139L418.276 164.267L406.207 177.561L383.276 163.663L386.897 141.305Z" fill="#575A89"/>
<path d="M330.379 104.571C337.428 99.4618 343.135 93.5774 346.91 86.5776C346.91 86.5776 359.847 100.972 367.753 101.692C375.659 102.412 368.472 84.4185 368.472 84.4185L354.097 80.8199L340.441 82.2593L329.66 89.4565L330.379 104.571Z" fill="#DF3CCF"/>
<path d="M375.432 137.075C375.432 137.075 366.987 150.446 341.64 144.063L327.257 148.029L325.346 148.556C325.346 148.556 327.156 184.813 331.984 191.46C336.811 198.107 335.604 201.732 334.397 202.337C333.19 202.941 330.173 201.732 331.984 204.754C333.794 207.775 336.208 205.962 333.794 207.775C331.38 209.588 330.173 216.235 330.173 216.235L386.897 223.486C386.897 223.486 385.087 199.92 389.914 187.834C394.742 175.749 395.949 170.914 395.949 170.914L392.328 140.701L375.432 137.075Z" fill="#575A89"/>
<path d="M281.596 304.157C291.927 304.157 300.303 295.77 300.303 285.424C300.303 275.079 291.927 266.692 281.596 266.692C271.264 266.692 262.889 275.079 262.889 285.424C262.889 295.77 271.264 304.157 281.596 304.157Z" fill="#5283CE"/>
</g>
<defs>
<clipPath id="clip0">
<rect width="438" height="462" fill="white"/>
</clipPath>
</defs>
</svg>
