<svg width="630" height="453" viewBox="0 0 630 453" fill="none" xmlns="http://www.w3.org/2000/svg">
<path d="M123.462 76.0688C135.608 76.0688 145.453 66.2146 145.453 54.0588C145.453 41.903 135.608 32.0488 123.462 32.0488C111.317 32.0488 101.471 41.903 101.471 54.0588C101.471 66.2146 111.317 76.0688 123.462 76.0688Z" fill="#2F2E41"/>
<path d="M56.4835 319.042L69.9942 272.145L74.5937 273.583C74.5937 273.583 69.1319 308.684 60.508 317.603L56.4835 319.042Z" fill="#2F2E41"/>
<path d="M107.939 67.2935C107.939 67.2935 109.664 85.7071 105.64 90.8859C101.615 96.0647 108.227 106.135 108.227 106.135L120.3 120.52L138.123 112.464L140.71 97.5033L138.985 87.1456C138.985 87.1456 132.949 81.1037 135.536 70.1706C138.123 59.2375 107.939 67.2935 107.939 67.2935Z" fill="#FFB9B9"/>
<path opacity="0.1" d="M107.939 67.2935C107.939 67.2935 109.664 85.7071 105.64 90.8859C101.615 96.0647 108.227 106.135 108.227 106.135L120.3 120.52L138.123 112.464L140.71 97.5033L138.985 87.1456C138.985 87.1456 132.949 81.1037 135.536 70.1706C138.123 59.2375 107.939 67.2935 107.939 67.2935Z" fill="black"/>
<path d="M118.288 411.685V423.481L134.099 426.646L132.661 407.082L118.288 411.685Z" fill="#FFB9B9"/>
<path d="M165.72 407.082L162.27 423.481L169.169 428.372L181.243 419.454L179.805 405.355L165.72 407.082Z" fill="#FFB9B9"/>
<path d="M135.536 425.208C135.536 425.208 129.499 414.995 118.288 421.396C118.288 421.396 116.276 432.688 114.263 433.551C112.251 434.414 101.04 450.814 114.263 452.252C127.487 453.691 134.098 449.375 134.098 449.375C134.098 449.375 131.511 451.603 135.536 450.453C139.56 449.302 137.835 442.972 137.835 442.972L135.536 425.208Z" fill="#2F2E41"/>
<path d="M174.918 418.302C174.918 418.302 166.007 424.632 164.57 421.755C163.132 418.878 160.833 419.166 160.833 419.166C160.833 419.166 152.784 449.534 157.958 450.973C161.29 451.794 164.79 451.613 168.019 450.453C168.019 450.453 174.918 445.617 174.918 449.357C174.918 453.097 194.178 452.828 202.227 452.54C210.276 452.253 205.964 446.211 205.964 446.211L195.328 435.853L183.255 418.303C183.255 418.303 177.793 413.411 174.918 418.302Z" fill="#2F2E41"/>
<path d="M90.1166 225.823L102.19 341.771C102.19 341.771 108.802 412.548 109.952 413.699C111.101 414.85 118.575 418.59 134.961 413.699L131.224 321.056L138.123 263.513L153.933 303.218C153.933 303.218 157.67 409.959 160.258 409.959C162.845 409.959 178.655 415.138 182.392 408.808C186.129 402.478 185.554 334.29 185.554 334.29C185.554 334.29 183.83 226.686 171.181 223.234C158.533 219.781 90.1166 225.823 90.1166 225.823Z" fill="#2F2E41"/>
<path d="M123.462 77.9389C134.417 77.9389 143.297 69.0508 143.297 58.0868C143.297 47.1227 134.417 38.2346 123.462 38.2346C112.508 38.2346 103.627 47.1227 103.627 58.0868C103.627 69.0508 112.508 77.9389 123.462 77.9389Z" fill="#FFB9B9"/>
<path d="M124.612 113.327C124.612 113.327 122.6 100.956 122.6 98.6542C122.6 96.3525 113.689 94.9139 113.689 94.9139C113.689 94.9139 106.79 87.1457 105.352 88.2965C103.915 89.4474 82.0677 104.121 78.6181 106.135C75.1686 108.149 71.4316 116.78 71.719 117.355C72.0065 117.931 89.8292 155.333 89.8292 155.333C89.8292 155.333 97.5907 178.35 92.1289 190.434C86.6671 202.518 79.768 226.398 89.8292 231.29C99.8904 236.181 148.759 246.826 157.671 237.619C166.582 228.412 172.906 225.823 175.206 225.823C177.505 225.823 165.719 185.831 168.307 182.091C170.894 178.35 167.157 155.046 167.157 155.046L180.38 117.931C180.38 117.931 179.23 97.2156 153.071 92.6122L137.422 85.0179L124.612 113.327Z" fill="#575A89"/>
<path d="M70.8566 231.002C70.8566 231.002 69.4193 244.812 69.4193 248.84C69.4193 252.868 62.5202 276.46 72.5814 279.337C82.6426 282.214 81.7802 247.977 81.7802 247.977V230.426L70.8566 231.002Z" fill="#FFB9B9"/>
<path d="M190.154 218.055C190.154 218.055 191.879 231.289 191.016 234.167C190.154 237.044 199.353 262.075 186.992 263.513C174.631 264.952 177.793 233.591 177.793 233.591V218.055L190.154 218.055Z" fill="#FFB9B9"/>
<path d="M68.2694 314.438L76.6058 270.131H79.193C81.0019 272.465 82.1884 275.221 82.641 278.14C83.0935 281.059 82.7973 284.045 81.7802 286.818C78.3306 296.6 75.456 314.438 75.456 314.438H68.2694Z" fill="#2F2E41"/>
<path d="M76.031 113.903L71.719 117.356C71.719 117.356 65.9697 208.848 67.4071 215.753C68.8444 222.658 62.2327 232.44 67.982 233.304C73.7313 234.167 80.6304 237.907 83.7925 235.605C86.9546 233.304 87.5295 224.96 88.6793 222.946C89.8292 220.932 91.8414 197.052 91.8414 197.052C91.8414 197.052 97.8781 173.172 94.1411 155.334C90.4041 137.495 86.9545 119.369 86.9545 119.369L76.031 113.903Z" fill="#575A89"/>
<path d="M167.157 106.71L180.38 117.931L190.441 176.624C190.441 176.624 196.765 222.37 191.879 222.946C186.992 223.521 179.518 222.083 176.356 222.946C173.193 223.809 170.606 221.507 170.606 221.507C170.606 221.507 167.157 203.094 167.157 202.806C167.157 202.518 164.857 181.515 164.857 181.515L161.982 157.923L166.294 132.029L167.157 106.71Z" fill="#575A89"/>
<path d="M104.777 378.31C104.777 378.31 102.909 383.682 100.333 390.996C99.1373 394.396 97.7891 398.22 96.4006 402.118C95.5066 404.639 94.5983 407.191 93.7042 409.682C92.2784 413.667 90.8928 417.494 89.6826 420.779C88.0843 425.115 86.7878 428.513 86.0922 430.098C82.9301 437.291 25.15 425.783 20.5506 422.906C15.9512 420.029 14.8013 410.246 14.2264 396.436C14.2235 396.364 14.2206 396.292 14.2206 396.22C14.1459 393.432 14.8559 389.281 16.0432 384.41C16.6353 381.976 17.3482 379.363 18.1416 376.65C19.2053 373.011 20.4126 369.196 21.6745 365.398C27.0961 349.085 33.4864 333.139 33.4864 333.139C33.4864 333.139 44.6975 325.371 48.722 320.192C52.7465 315.014 74.8812 310.986 74.8812 310.986C81.2054 311.273 95.5785 335.729 101.328 343.209C107.077 350.69 104.777 378.31 104.777 378.31Z" fill="#3F3D56"/>
<path d="M72.5814 334.578C74.0103 334.578 75.1686 333.419 75.1686 331.989C75.1686 330.559 74.0103 329.399 72.5814 329.399C71.1526 329.399 69.9943 330.559 69.9943 331.989C69.9943 333.419 71.1526 334.578 72.5814 334.578Z" fill="#2F2E41"/>
<path d="M76.6059 336.304C77.3997 336.304 78.0432 335.66 78.0432 334.866C78.0432 334.071 77.3997 333.427 76.6059 333.427C75.8121 333.427 75.1686 334.071 75.1686 334.866C75.1686 335.66 75.8121 336.304 76.6059 336.304Z" fill="#2F2E41"/>
<path d="M100.333 390.996C99.1372 394.396 97.789 398.22 96.4006 402.119L18.1416 376.65C19.2052 373.011 20.4126 369.196 21.6745 365.398L100.333 390.996Z" fill="#F2F2F2"/>
<path d="M93.7042 409.683C92.2784 413.667 90.8928 417.494 89.6826 420.78L14.2206 396.22C14.1459 393.433 14.8559 389.281 16.0432 384.41L93.7042 409.683Z" fill="#F2F2F2"/>
<path d="M72.5814 332.564C72.5814 332.564 78.3307 357.883 74.8811 380.324C71.4316 402.766 83.505 423.769 83.505 423.769" stroke="#2F2E41" stroke-width="3" stroke-miterlimit="10"/>
<path d="M76.6059 334.578C76.6059 334.578 65.3948 375.433 65.1073 381.188C64.8199 386.942 60.2205 428.085 54.4712 432.4" stroke="#2F2E41" stroke-width="3" stroke-miterlimit="10"/>
<path d="M108.235 45.9725C108.235 45.9725 103.745 34.289 110.255 30.4694L112.051 35.6371C112.051 35.6371 128.439 25.751 132.704 27.9979L128.663 33.3903C128.663 33.3903 147.745 33.3903 149.092 40.8049L142.357 41.0295C142.357 41.0295 149.541 45.7479 149.765 53.3871L135.398 54.2859L142.357 58.3302C142.357 58.3302 116.316 61.9251 110.031 51.5897L108.235 45.9725Z" fill="#2F2E41"/>
<path d="M104.346 46.4344C104.346 46.4344 109.52 56.7921 116.42 54.2026C123.319 51.6132 116.42 42.1187 116.42 42.1187L111.82 39.817L104.346 46.4344Z" fill="#2F2E41"/>
<path d="M550.541 209.837L456.714 92.4874C452.454 96.3869 447.205 99.0397 441.54 100.156C423.877 103.638 406.626 91.5649 403.011 73.1906C401.764 67.114 402.2 60.8121 404.27 54.965C406.341 49.118 409.967 43.9479 414.758 40.0127L382.766 0L200.504 155.906L368.278 365.743L550.541 209.837Z" fill="#F2F2F2"/>
<path d="M433.958 94.5806C448.566 94.5806 460.409 82.7277 460.409 68.1065C460.409 53.4852 448.566 41.6323 433.958 41.6323C419.349 41.6323 407.507 53.4852 407.507 68.1065C407.507 82.7277 419.349 94.5806 433.958 94.5806Z" fill="#F2F2F2"/>
<path d="M268.449 186.071L260.355 195.445L287.622 219.026L295.715 209.652L268.449 186.071Z" fill="#5283CE"/>
<path d="M443.729 353.719L435.635 363.094L459.805 383.996L467.898 374.622L443.729 353.719Z" fill="#5283CE"/>
<path d="M487.399 283.895V284.622C487.382 286.447 487.33 288.264 487.242 290.073C485.669 321.03 472.326 350.212 449.947 371.639C427.569 393.066 397.85 405.116 366.881 405.318C335.912 405.521 306.039 393.862 283.382 372.729C260.726 351.597 247.002 322.592 245.025 291.659C244.86 289.09 244.777 286.502 244.777 283.895C244.733 258.748 252.531 234.214 267.083 213.713C268.247 212.061 269.457 210.44 270.714 208.849C271.581 207.742 272.472 206.66 273.372 205.586C293.85 181.305 323.021 166.024 354.627 163.022C386.233 160.021 417.755 169.537 442.431 189.529C443.892 190.71 445.328 191.933 446.73 193.18C447.853 194.179 448.956 195.201 450.04 196.244C471.385 216.68 484.523 244.225 486.978 273.686C487.258 277.056 487.399 280.459 487.399 283.895Z" fill="#3F3D56"/>
<path d="M366.088 420.591C290.779 420.591 229.51 359.269 229.51 283.895C229.466 249.409 242.488 216.19 265.952 190.936L268.977 193.745C246.222 218.236 233.593 250.451 233.636 283.895C233.636 356.992 293.054 416.461 366.088 416.461C383.833 416.521 401.407 412.983 417.749 406.061C434.091 399.138 448.863 388.974 461.174 376.182L464.136 379.057C451.442 392.247 436.21 402.728 419.359 409.866C402.508 417.005 384.386 420.653 366.088 420.591Z" fill="#5283CE"/>
<path d="M385.894 417.7H351.234V452.39H385.894V417.7Z" fill="#5283CE"/>
<path d="M270.715 208.848C270.774 208.873 270.83 208.907 270.88 208.948C271.532 209.484 270.715 210.517 270.814 211.368C270.929 212.458 272.382 212.697 273.479 212.805C274.577 212.92 275.963 213.804 275.443 214.779C272.687 215.729 269.898 214.795 267.083 213.713C252.531 234.214 244.734 258.748 244.777 283.895C244.777 286.505 244.86 289.093 245.025 291.659C245.255 291.827 245.508 291.964 245.776 292.064C246.601 292.378 247.558 292.32 248.317 292.766C248.92 293.121 249.324 293.749 249.927 294.079C251.651 295.021 254.045 293.212 255.654 294.335C256.07 294.714 256.464 295.117 256.834 295.541C258.319 296.83 260.762 295.962 262.479 296.929C263.585 297.548 264.154 298.787 264.748 299.91C266.225 302.719 268.618 305.477 271.779 305.7C272.776 305.654 273.775 305.688 274.767 305.799C275.74 306.022 276.698 306.873 276.541 307.856C276.268 309.549 277.102 311.399 276.879 313.093C276.475 316.19 272.093 317.545 271.721 320.642C271.72 321.323 271.682 322.005 271.606 322.682C271.408 323.491 270.797 324.152 270.583 324.962C270.17 326.49 271.268 328.018 272.464 329.042C273.669 330.074 275.105 330.966 275.765 332.403C276.458 333.932 276.12 335.707 276.343 337.368C276.838 340.993 279.966 343.678 283.184 345.412C284.215 345.844 285.131 346.511 285.858 347.362C286.683 348.559 286.601 350.137 286.881 351.566C287.558 355.06 290.496 357.942 290.578 361.502C290.636 364.038 289.233 366.334 288.391 368.721C287.525 371.223 287.268 373.896 287.64 376.518C292.346 380.512 297.347 384.143 302.602 387.379C302.888 386.957 303.097 386.487 303.221 385.992C303.321 385.444 303.252 384.879 303.023 384.372C302.795 383.864 302.418 383.438 301.942 383.15C302.829 382.815 303.635 382.297 304.31 381.631C304.642 381.289 304.861 380.855 304.937 380.385C305.014 379.915 304.945 379.433 304.739 379.004C306.192 379.186 307.917 379.277 308.874 378.162C309.641 377.27 309.592 375.931 309.286 374.8C308.867 373.7 308.59 372.551 308.461 371.38C311.826 371.544 315.199 371.431 318.546 371.042C318.061 369.408 316.96 368.027 315.476 367.193C316.994 366.937 318.372 365.12 318.851 363.658C319.265 362.166 319.288 360.593 318.917 359.09C318.802 358.704 318.785 358.295 318.867 357.901C319.112 357.377 319.541 356.962 320.072 356.736C322.581 355.291 325.09 353.848 327.599 352.408C328.046 352.182 328.453 351.884 328.803 351.524C329.587 350.591 329.472 349.195 329.067 348.047C328.663 346.899 328.019 345.817 327.863 344.611C327.401 341.002 331.263 338.408 332.567 335.005C333.01 333.647 333.249 332.23 333.276 330.801C333.383 329.265 333.392 327.489 332.22 326.506C331.089 325.556 329.332 325.771 328.151 324.887C327.07 324.078 326.699 322.517 325.519 321.864C324.446 321.27 323.109 321.65 321.913 321.369C319.817 320.881 318.496 318.461 316.35 318.238C315.146 318.106 313.776 318.701 312.785 317.999C311.911 317.371 311.878 316.124 311.713 315.067C311.42 313.42 310.63 311.902 309.45 310.718C308.269 309.534 306.755 308.74 305.111 308.442C303.865 308.244 302.511 308.319 301.447 307.633C300.374 306.939 299.887 305.642 299.037 304.676C297.683 303.132 295.538 302.578 293.533 302.107C290.809 301.471 288.089 300.833 285.371 300.191C283.927 299.844 282.062 299.663 281.278 300.934C281.046 301.418 280.884 301.933 280.799 302.463C280.504 303.416 279.916 304.251 279.119 304.851C278.322 305.45 277.356 305.782 276.359 305.799C275.677 304.633 274.571 303.775 273.273 303.404C272.424 303.262 271.586 303.063 270.764 302.809C270.335 302.599 269.953 302.303 269.642 301.939C269.33 301.576 269.097 301.153 268.955 300.696C268.812 300.239 268.765 299.758 268.815 299.282C268.865 298.806 269.012 298.345 269.246 297.928C269.714 297.09 269.894 296.121 269.758 295.17C269.622 294.22 269.178 293.34 268.495 292.667C267.108 291.419 265.103 291.114 263.238 291.238C262.751 290.172 263.568 288.975 264.443 288.198C265.326 287.43 266.39 286.67 266.58 285.514C266.885 283.697 264.567 282.317 262.809 282.854C261.051 283.399 259.929 285.109 259.186 286.794C258.826 287.788 258.335 288.73 257.725 289.594C257.413 290.022 256.989 290.354 256.499 290.555C256.01 290.757 255.475 290.818 254.952 290.734C253.5 290.362 252.947 288.636 252.625 287.182C252.11 285.239 251.849 283.237 251.85 281.227C251.862 279.197 252.668 277.252 254.094 275.809C256.496 273.595 260.193 273.81 263.436 274.165C263.089 273.701 262.922 273.127 262.968 272.549C263.013 271.971 263.268 271.43 263.684 271.027C264.118 270.641 264.639 270.367 265.203 270.229C265.767 270.091 266.356 270.092 266.919 270.234C267.896 270.436 268.777 270.963 269.419 271.729C270.343 272.852 270.607 274.38 271.301 275.652C272.002 276.932 273.57 278.022 274.849 277.337C275.963 276.742 276.136 275.206 275.864 273.975C275.584 272.753 274.998 271.555 275.097 270.3C275.286 267.913 277.77 266.467 279.957 265.484C282.144 264.501 284.645 263.172 284.991 260.793C285.007 260.33 285.096 259.873 285.255 259.438C285.497 259.05 285.836 258.732 286.237 258.513C292.617 254.293 299.111 250.014 306.406 247.71C306.786 247.586 306.827 247.718 307.215 247.627C307.76 247.313 307.397 246.446 306.877 246.099C306.357 245.752 305.664 245.48 305.532 244.868C305.441 244.422 305.705 243.976 305.771 243.522C305.788 243.248 305.738 242.973 305.625 242.723C305.511 242.472 305.338 242.254 305.121 242.086C304.903 241.918 304.648 241.806 304.377 241.76C304.106 241.713 303.828 241.734 303.568 241.821C302.982 241.044 304.137 240.144 305.078 239.88C307.895 239.107 310.785 238.637 313.702 238.476C314.038 238.42 314.384 238.478 314.684 238.641C314.898 238.848 315.025 239.129 315.039 239.427C315.053 239.725 314.952 240.017 314.758 240.243C314.361 240.684 313.921 241.086 313.446 241.441C312.972 241.901 312.634 242.483 312.468 243.122C312.302 243.761 312.315 244.434 312.505 245.067C314.032 245.843 315.682 246.644 317.374 246.372C319.057 246.099 320.551 244.199 319.759 242.688C319.024 241.276 316.804 240.953 316.425 239.409C315.979 237.6 318.537 235.989 317.96 234.222C317.712 233.445 316.937 232.983 316.342 232.43C315.643 231.74 315.168 230.857 314.978 229.893C314.788 228.929 314.892 227.931 315.278 227.028C314.312 227.197 313.319 227.132 312.383 226.839C311.447 226.546 310.595 226.033 309.897 225.343C308.61 224.046 307.586 221.989 305.754 222.055C304.079 222.105 302.635 224.063 301.067 223.468C300.679 223.319 300.275 223.022 299.903 223.195C299.781 223.274 299.678 223.38 299.602 223.504C299.526 223.629 299.48 223.769 299.466 223.914C299.07 225.822 299.755 227.994 298.715 229.646C297.585 231.438 294.969 231.686 293.599 233.305C292.856 234.181 292.567 235.362 291.882 236.287C291.197 237.212 289.753 237.807 288.928 236.997C289.332 236.168 289.443 235.226 289.242 234.325C289.041 233.425 288.54 232.62 287.822 232.041C287.062 231.542 286.241 231.142 285.379 230.852C284.417 230.445 283.501 229.936 282.648 229.332C282.222 229.073 281.877 228.701 281.649 228.258C281.469 227.701 281.492 227.098 281.715 226.557C282.133 225.364 282.868 224.308 283.84 223.502C284.813 222.695 285.987 222.17 287.236 221.981C288.325 221.833 289.596 221.882 290.322 221.048C290.702 220.61 290.9 219.941 291.461 219.768C291.815 219.694 292.183 219.737 292.509 219.891C293.871 220.371 295.224 220.85 296.586 221.329C297.04 221.537 297.542 221.62 298.038 221.568C298.285 221.536 298.51 221.412 298.667 221.22C298.825 221.028 298.904 220.784 298.888 220.536C298.756 219.858 297.717 219.536 297.816 218.851C297.864 218.627 297.982 218.424 298.154 218.273C299.626 216.706 301.425 215.484 303.424 214.694C305.423 213.905 307.571 213.567 309.716 213.705C310.227 214.556 309.418 215.555 308.734 216.274C308.057 217.001 307.512 218.289 308.337 218.843C308.67 219.017 309.043 219.103 309.418 219.09C310.422 219.225 311.397 219.521 312.307 219.966C313.718 220.577 315.104 221.254 316.458 221.981C316.259 221.096 316.293 220.173 316.557 219.305C316.706 218.879 317.008 218.523 317.405 218.308C317.802 218.093 318.264 218.033 318.702 218.14C319.511 218.454 319.924 219.528 320.79 219.627C321.937 219.759 322.391 218.058 321.913 217.001C321.434 215.943 320.477 215.068 320.403 213.903C320.345 213.127 320.642 212.161 320.023 211.69C319.803 211.544 319.551 211.453 319.288 211.425C314.106 210.476 308.921 209.523 303.733 208.568C302.808 208.394 301.48 208.526 301.438 209.46C301.414 209.988 301.884 210.509 301.678 210.988C301.455 211.5 300.729 211.458 300.201 211.64C299.804 211.82 299.476 212.125 299.268 212.508C299.059 212.891 298.981 213.331 299.045 213.763C299.186 214.622 299.519 215.438 300.019 216.15C299.004 215.729 297.477 215.654 296.462 215.225C296.315 214.048 296.015 212.896 295.571 211.797C295.546 211.622 295.482 211.455 295.385 211.307C295.288 211.159 295.16 211.035 295.01 210.942C294.86 210.849 294.691 210.79 294.516 210.769C294.34 210.749 294.162 210.767 293.995 210.822C292.658 211.029 291.321 211.227 289.984 211.434C289.648 211.45 289.327 211.574 289.068 211.789C288.548 212.342 289.06 213.226 289.043 213.986C288.995 214.411 288.816 214.81 288.53 215.128C288.245 215.447 287.867 215.668 287.451 215.762C286.611 215.932 285.744 215.921 284.909 215.729C283.035 215.44 281.17 215.151 279.297 214.861C280.951 214.334 282.421 213.349 283.539 212.02C284.282 211.145 284.678 209.509 283.605 209.096C283.288 209.009 282.957 208.984 282.631 209.022C280.089 209.038 278.084 206.916 275.707 206.015C274.96 205.736 274.17 205.591 273.372 205.586L270.715 208.848Z" fill="#5283CE"/>
<path d="M487.242 290.073C486.951 290.464 486.568 290.778 486.128 290.987C485.688 291.195 485.203 291.293 484.717 291.271C482.134 291.048 481.044 287.323 478.486 286.901C478.26 286.843 478.02 286.867 477.809 286.968C477.43 287.174 477.364 287.686 477.339 288.116C477.232 290.247 477.141 292.46 477.974 294.426C479.188 297.3 482.332 299.712 481.671 302.76C478.123 301.116 476.274 297.127 475.441 293.303C474.599 289.478 474.467 285.464 472.965 281.847C471.818 283.309 469.425 282.103 468.385 280.566C467.395 279.113 466.784 277.428 465.827 275.949C464.87 274.479 463.401 273.157 461.651 273.075C459.811 272.992 458.21 274.256 456.807 275.454C455.586 276.356 454.562 277.497 453.795 278.807C452.813 280.789 453.069 283.119 453.019 285.324C452.97 287.703 452.466 290.222 450.84 291.973C449.215 293.716 446.219 294.327 444.428 292.749C443.562 291.846 442.945 290.733 442.637 289.52C440.691 283.841 439.07 278.055 437.785 272.191C437.488 273.529 436.308 275.255 435.186 274.471C434.935 274.257 434.732 273.992 434.591 273.694C432.495 270.151 428.625 268.02 424.705 266.74C420.793 265.468 416.675 264.873 412.805 263.469C410.634 262.68 408.561 261.647 406.624 260.388C406.132 261.113 405.845 261.958 405.792 262.833C405.74 263.709 405.925 264.582 406.327 265.36C406.762 266.122 407.436 266.719 408.245 267.058C409.054 267.398 409.952 267.46 410.8 267.235C411.658 266.955 412.384 266.36 413.234 266.062C414.084 265.773 415.231 265.914 415.603 266.74C415.966 267.524 415.421 268.474 415.693 269.3C416.098 270.547 417.987 270.647 418.648 271.786C418.842 272.238 418.886 272.739 418.775 273.218C418.664 273.697 418.402 274.127 418.029 274.446C417.269 275.066 416.431 275.582 415.536 275.982C412.764 277.527 410.791 280.162 408.365 282.21C405.939 284.267 402.514 285.762 399.626 284.448C400.311 280.955 396.16 278.394 395.392 274.917C395.137 273.769 395.269 272.555 394.914 271.439C394.394 269.821 392.958 268.714 391.786 267.491C390.362 265.991 389.253 264.22 388.523 262.284C387.793 260.348 387.458 258.285 387.536 256.217C387.602 254.78 387.866 253.318 387.536 251.914C387.214 250.518 386.051 249.163 384.615 249.221C381.338 249.37 377.204 249.618 375.487 246.818C374.869 245.818 374.604 244.356 375.496 243.588C375.844 243.367 376.233 243.218 376.639 243.148C377.046 243.079 377.462 243.091 377.864 243.183C380.332 243.423 382.791 243.671 385.258 243.91C386.983 244.075 388.848 244.216 390.334 243.316C391.819 242.415 392.463 240.012 391.085 238.946C390.086 238.17 388.287 238.211 387.99 236.981C387.751 235.948 388.889 234.783 388.27 233.916C387.833 233.305 386.843 233.47 386.24 233.933C385.715 234.479 385.143 234.979 384.532 235.428C383.352 236.039 381.949 235.452 380.678 235.056C379.407 234.66 377.707 234.627 377.097 235.808C376.403 237.121 377.699 238.855 377.022 240.177C376.115 241.92 373.061 240.929 371.79 242.432C370.338 244.15 372.781 246.727 372.294 248.924C371.667 249.235 370.97 249.378 370.271 249.339C369.573 249.3 368.896 249.08 368.308 248.701C367.73 248.308 367.27 247.765 366.977 247.131C366.683 246.497 366.567 245.795 366.641 245.1C366.756 244.109 367.276 243.093 366.93 242.159C366.556 241.438 365.939 240.874 365.188 240.565C362.795 239.235 360.402 237.911 358.009 236.592C357.34 237.831 358.182 239.359 359.238 240.293C360.286 241.218 361.607 241.92 362.3 243.142C362.739 243.989 362.838 244.972 362.577 245.89C362.317 246.808 361.716 247.592 360.897 248.081C360.793 248.153 360.676 248.201 360.552 248.222C360.428 248.243 360.301 248.238 360.179 248.205C360.065 248.138 359.965 248.049 359.886 247.942C359.806 247.836 359.749 247.715 359.717 247.586C358.454 244.34 356.548 241.143 353.511 239.45C350.466 237.749 346.101 238.104 344.103 240.953C343.633 241.631 343.311 242.407 342.899 243.126C340.712 246.933 336.008 248.734 331.618 248.618C331.188 248.646 330.76 248.545 330.388 248.329C329.678 247.842 329.711 246.801 329.818 245.942C329.975 244.728 330.124 243.522 330.281 242.308C330.284 241.567 330.571 240.855 331.081 240.317C331.898 239.673 333.07 240.078 334.11 240.061C334.895 240.026 335.649 239.75 336.271 239.269C336.893 238.789 337.351 238.128 337.584 237.377C337.793 236.619 337.791 235.818 337.579 235.061C337.367 234.305 336.952 233.62 336.379 233.082C335.909 232.636 335.273 232.074 335.521 231.471C335.622 231.305 335.757 231.163 335.918 231.055C336.079 230.946 336.262 230.874 336.453 230.844C338.31 230.307 340.283 230.166 342.106 229.522C343.938 228.886 345.713 227.581 346.15 225.69C346.282 225.111 346.34 224.409 346.86 224.12C347.122 224.015 347.402 223.959 347.685 223.955C348.677 223.813 349.58 223.304 350.217 222.529C350.854 221.755 351.178 220.769 351.126 219.767C352.001 219.156 353.231 219.611 354.081 220.263C354.922 220.916 355.673 221.775 356.705 222.055C358.628 222.584 360.485 220.874 362.482 220.866C363.323 220.866 364.19 221.163 364.974 220.874C365.774 220.585 366.253 219.792 366.864 219.206C367.483 218.611 368.555 218.256 369.125 218.892C368.96 217.694 368.803 216.505 368.638 215.316C369.61 215.561 370.624 215.595 371.61 215.415C372.596 215.236 373.533 214.847 374.357 214.275C372.277 213.573 370.206 212.871 368.126 212.169C367.908 212.115 367.706 212.007 367.54 211.855C367.086 211.367 367.54 210.608 367.903 210.054C368.786 208.724 368.935 206.536 367.483 205.875C366.492 205.421 365.362 205.966 364.413 206.494C362.894 207.337 361.376 208.188 359.857 209.03C359.717 209.897 360.773 210.393 361.425 210.971C361.823 211.324 362.104 211.789 362.232 212.304C362.36 212.82 362.33 213.363 362.144 213.861C361.958 214.359 361.626 214.788 361.191 215.094C360.757 215.399 360.24 215.566 359.709 215.572C360.008 215.962 360.216 216.415 360.317 216.897C360.419 217.379 360.411 217.877 360.295 218.355C359.28 218.429 358.256 218.504 357.233 218.578C357.063 218.612 356.888 218.612 356.718 218.578C356.548 218.544 356.387 218.477 356.243 218.38C355.913 218.091 355.962 217.579 355.88 217.149C355.744 216.636 355.457 216.175 355.057 215.826C354.657 215.477 354.162 215.256 353.635 215.192C352.584 215.073 351.519 215.172 350.507 215.481C350.067 215.636 349.586 215.624 349.154 215.448C348.909 215.285 348.724 215.048 348.626 214.77C348.446 214.204 348.416 213.601 348.537 213.019C348.658 212.438 348.928 211.897 349.319 211.45C350.111 210.569 350.985 209.765 351.927 209.047C354.062 207.175 355.632 204.744 356.457 202.026C358.141 201.316 359.882 200.357 361.574 199.647C362.934 199.016 364.359 198.537 365.824 198.218C367.202 198.008 368.599 197.941 369.991 198.02C371.889 198.053 373.796 198.086 375.694 198.127C377.388 198.056 379.081 198.3 380.687 198.846C382.246 199.49 383.624 200.886 383.732 202.571C383.764 202.763 383.747 202.96 383.682 203.144C383.617 203.327 383.506 203.491 383.36 203.62C383.141 203.741 382.892 203.798 382.642 203.785C381.066 203.835 380.398 204.231 378.821 204.289C379.82 205.355 380.942 206.478 382.395 206.668C384.953 206.998 386.793 204.347 387.973 202.042C388.016 202.629 388.285 203.176 388.725 203.566C389.164 203.957 389.738 204.16 390.325 204.132C390.958 204.023 391.561 203.787 392.1 203.438C397.176 200.662 402.861 199.192 408.646 199.16C408.589 198.722 408.697 198.278 408.948 197.915C409.2 197.551 409.577 197.295 410.007 197.194C411.187 196.963 412.244 197.979 412.813 199.036C413.374 200.093 413.729 201.316 414.637 202.108C415.537 202.901 417.278 202.86 417.633 201.72C417.979 200.622 416.832 199.68 415.883 199.028C414.926 198.383 413.927 197.186 414.571 196.228C419.423 195.146 424.317 194.072 429.293 193.857C430.139 193.883 430.981 193.737 431.769 193.428C432.159 193.262 432.484 192.973 432.693 192.604C432.902 192.235 432.983 191.807 432.924 191.388C431.839 191.641 430.702 191.566 429.659 191.172C428.615 190.778 427.713 190.083 427.065 189.174C432.173 188.753 437.521 188.381 442.431 189.529L446.731 193.18C445.914 194.031 444.824 194.832 445.419 195.683C445.615 195.878 445.852 196.026 446.114 196.116C446.375 196.207 446.654 196.236 446.929 196.203C447.969 196.219 449.008 196.244 450.04 196.244C471.385 216.679 484.524 244.224 486.978 273.686C485.245 273.62 483.652 275.817 483.875 277.733C484.139 279.955 485.74 281.739 486.887 283.655C487.077 283.967 487.248 284.29 487.399 284.622L487.242 290.073Z" fill="#5283CE"/>
<path d="M259.912 56.8239C265.694 56.8239 270.381 52.1329 270.381 46.3463C270.381 40.5597 265.694 35.8688 259.912 35.8688C254.13 35.8688 249.444 40.5597 249.444 46.3463C249.444 52.1329 254.13 56.8239 259.912 56.8239Z" stroke="#3F3D56" stroke-width="2" stroke-miterlimit="10"/>
<path d="M569.236 256.355C575.018 256.355 579.705 251.664 579.705 245.877C579.705 240.091 575.018 235.4 569.236 235.4C563.455 235.4 558.768 240.091 558.768 245.877C558.768 251.664 563.455 256.355 569.236 256.355Z" stroke="#3F3D56" stroke-width="2" stroke-miterlimit="10"/>
<path d="M497.77 151.974C503.552 151.974 508.239 147.283 508.239 141.496C508.239 135.71 503.552 131.019 497.77 131.019C491.989 131.019 487.302 135.71 487.302 141.496C487.302 147.283 491.989 151.974 497.77 151.974Z" stroke="#3F3D56" stroke-width="2" stroke-miterlimit="10"/>
<path d="M429.087 241.766C435.575 241.766 440.835 236.502 440.835 230.008C440.835 223.514 435.575 218.25 429.087 218.25C422.598 218.25 417.339 223.514 417.339 230.008C417.339 236.502 422.598 241.766 429.087 241.766Z" fill="#3F3D56"/>
<path d="M466.824 207.715C475.376 207.715 482.31 200.775 482.31 192.215C482.31 183.655 475.376 176.716 466.824 176.716C458.271 176.716 451.338 183.655 451.338 192.215C451.338 200.775 458.271 207.715 466.824 207.715Z" fill="white"/>
<path d="M482.485 176.147C478.328 172.089 472.731 169.849 466.925 169.921C461.119 169.993 455.579 172.371 451.524 176.531C443.081 185.194 431.026 228.942 431.026 228.942C431.026 228.942 474.425 215.797 482.868 207.134C486.923 202.974 489.16 197.372 489.089 191.561C489.017 185.75 486.641 180.205 482.485 176.147ZM459.739 199.484C458.302 198.082 457.313 196.284 456.898 194.319C456.482 192.355 456.657 190.31 457.402 188.446C458.147 186.581 459.428 184.979 461.083 183.842C462.737 182.706 464.691 182.086 466.698 182.061C468.704 182.036 470.673 182.607 472.355 183.702C474.037 184.798 475.357 186.367 476.148 188.213C476.939 190.059 477.165 192.098 476.798 194.073C476.431 196.047 475.487 197.868 474.086 199.306C472.207 201.234 469.64 202.336 466.949 202.369C464.258 202.402 461.665 201.365 459.739 199.484Z" fill="#57B894"/>
</svg>
