<svg width="204" height="75" viewBox="0 0 204 75" fill="none" xmlns="http://www.w3.org/2000/svg">
<path d="M20.3 4.8V69.3C20.3 71.3667 19.3 72.8 17.3 73.6C15.3667 74.4 13.6333 74.0667 12.1 72.6L3.9 64.4C4.1 64.4667 4.4 64.5 4.8 64.5C6.46667 64.5 7.86667 63.9333 9 62.8C10.2 61.6667 10.8 60.2667 10.8 58.6V4.8C10.8 3.46666 11.2333 2.33333 12.1 1.4C13.0333 0.466666 14.1667 -9.53674e-07 15.5 -9.53674e-07C16.8333 -9.53674e-07 17.9667 0.466666 18.9 1.4C19.8333 2.33333 20.3 3.46666 20.3 4.8ZM1.4 11.3L9.9 2.69999C9.7 3.43333 9.6 4.13333 9.6 4.8V58.6C9.6 59.8667 9.13333 60.9667 8.2 61.9C7.26667 62.8333 6.13333 63.3 4.8 63.3C3.46667 63.3 2.33333 62.8333 1.4 61.9C0.466667 60.9667 2.83122e-07 59.8667 2.83122e-07 58.6V14.6C2.83122e-07 13.3333 0.466667 12.2333 1.4 11.3ZM74.6156 4.3V69C74.6156 70.4 74.1156 71.6 73.1156 72.6C72.1156 73.5333 70.949 74 69.6156 74C68.2156 74 67.0156 73.5 66.0156 72.5L63.5156 70C59.449 72.6667 54.9823 74 50.1156 74C43.649 74 38.0156 71.5 33.2156 66.5C28.4156 61.5 26.0156 55.9667 26.0156 49.9C26.0156 48.3 26.049 47.2667 26.1156 46.8H26.2156C26.8823 52.1333 29.1156 56.5333 32.9156 60C36.649 63.4 41.1823 65.1 46.5156 65.1C50.1156 65.1 53.1823 64.2333 55.7156 62.5C56.7156 64.3667 58.3156 65.3 60.5156 65.3C61.9823 65.3 63.249 64.7667 64.3156 63.7C65.449 62.5667 66.0156 61.2667 66.0156 59.8V44.9C66.0156 41.3 64.7156 38.2 62.1156 35.6C59.649 32.9333 56.5823 31.6 52.9156 31.6C49.3156 31.6 46.2156 32.9333 43.6156 35.6C41.0823 38.2667 39.8156 41.3667 39.8156 44.9C39.8156 48.1 40.8823 50.8667 43.0156 53.2L42.9156 53.3C40.649 52.3 38.749 50.6667 37.2156 48.4C35.749 46.0667 35.0156 43.5667 35.0156 40.9C35.0156 36.3667 36.549 32.2667 39.6156 28.6C42.749 24.8667 47.1823 23 52.9156 23C57.7156 23 62.0823 24.4667 66.0156 27.4V4.3C66.0156 3.1 66.4156 2.1 67.2156 1.29999C68.0823 0.433331 69.1156 -9.53674e-07 70.3156 -9.53674e-07C71.5156 -9.53674e-07 72.5156 0.433331 73.3156 1.29999C74.1823 2.1 74.6156 3.1 74.6156 4.3ZM43.4156 23.9L43.5156 24C40.7156 25.4667 38.4156 27.6667 36.6156 30.6C34.8156 33.5333 33.9156 36.9667 33.9156 40.9C33.9156 44.7 35.2156 48.1 37.8156 51.1C40.549 54.0333 43.6823 55.5 47.2156 55.5C50.549 55.5 52.9156 54.6 54.3156 52.8C55.7156 51 56.4156 49.1667 56.4156 47.3C56.4156 45.1 55.6156 43.2333 54.0156 41.7C52.4823 40.1 50.5823 39.3 48.3156 39.3C46.7823 39.3 45.349 39.7333 44.0156 40.6C42.6823 41.4667 41.7156 42.6 41.1156 44H41.0156C41.2823 40.8667 42.549 38.2333 44.8156 36.1C47.0823 33.9 49.7823 32.8 52.9156 32.8C56.249 32.8 59.049 34 61.3156 36.4C63.649 38.7333 64.8156 41.5667 64.8156 44.9V59.8C64.8156 61 64.3823 62.0333 63.5156 62.9C62.7156 63.7 61.7156 64.1 60.5156 64.1C59.449 64.1 58.5156 63.7667 57.7156 63.1C56.9156 62.4333 56.449 61.5667 56.3156 60.5C54.049 62.7667 50.7823 63.9 46.5156 63.9C40.649 63.9 35.949 61.9 32.4156 57.9C28.949 53.8333 27.2156 49.1667 27.2156 43.9C27.2156 39.3667 28.8156 35.2 32.0156 31.4C35.2823 27.6 39.0823 25.1 43.4156 23.9ZM57.5156 9.8L65.3156 1.79999L65.4156 1.9C65.0156 2.63333 64.8156 3.43333 64.8156 4.3V25.2C62.2156 23.5333 59.349 22.5 56.2156 22.1V12.9C56.2156 11.7 56.649 10.6667 57.5156 9.8ZM94.1359 25L94.2359 25.1C89.2359 28.7 86.7359 33.4667 86.7359 39.4C86.7359 44.8 88.8693 49.2 93.1359 52.6L102.336 42.5C103.003 41.7667 103.336 40.8667 103.336 39.8C103.336 38.6 102.936 37.6 102.136 36.8C101.336 35.9333 100.403 35.5 99.3359 35.5L97.5359 36L97.4359 35.9C99.2359 33.5 101.803 32.3 105.136 32.3C107.403 32.3 109.369 33.0333 111.036 34.5C112.769 35.9667 113.636 37.7 113.636 39.7C113.636 41.7 113.003 43.4333 111.736 44.9L101.336 56.2C102.403 56.3333 103.303 56.4 104.036 56.4C107.369 56.4 110.369 55.5 113.036 53.7C113.903 53.1667 114.703 52.9 115.436 52.9C116.569 52.9 117.536 53.3333 118.336 54.2C119.203 55 119.636 56 119.636 57.2C119.636 58.6667 119.036 59.8333 117.836 60.7C113.369 63.5 108.769 64.9 104.036 64.9C97.9026 64.9 92.3693 62.9333 87.4359 59C82.5693 55 80.1359 49.9333 80.1359 43.8C80.1359 39.5333 81.4693 35.7333 84.1359 32.4C86.8693 29 90.2026 26.5333 94.1359 25ZM79.0359 45.9H79.1359C79.7359 51.7667 82.4693 56.6 87.3359 60.4C92.2693 64.1333 97.8359 66 104.036 66C109.369 66 114.169 64.5667 118.436 61.7C120.036 60.5667 120.836 59.0667 120.836 57.2C120.836 56.2667 120.636 55.4667 120.236 54.8L120.336 54.7L125.536 60C126.669 61.3333 127.236 62.5 127.236 63.5C127.236 65.1 126.503 66.4333 125.036 67.5C118.303 72.2333 111.303 74.6 104.036 74.6C96.9026 74.6 90.8693 71.8333 85.9359 66.3C81.0693 60.7667 78.7693 53.9667 79.0359 45.9ZM105.336 22.7C109.803 22.7 113.903 24.2 117.636 27.2C121.436 30.2 123.336 34.4667 123.336 40C123.336 45 121.703 49.2333 118.436 52.7C117.236 52.1 116.236 51.8 115.436 51.8C114.503 51.8 113.503 52.1333 112.436 52.8C109.703 54.4667 106.903 55.3 104.036 55.3H103.736L112.536 45.7C114.003 44.2333 114.736 42.2333 114.736 39.7C114.736 37.3 113.803 35.3 111.936 33.7C110.069 32.0333 107.803 31.2 105.136 31.2C101.803 31.2 99.1026 32.3 97.0359 34.5C95.0359 36.7 94.0359 39.3667 94.0359 42.5C94.0359 44.4333 94.7026 46.1667 96.0359 47.7L93.0359 51C89.5693 47.9333 87.8359 44.0667 87.8359 39.4C87.8359 34.8667 89.5359 30.9667 92.9359 27.7C96.4693 24.3667 100.603 22.7 105.336 22.7ZM150.215 27.3V69C150.215 71.1333 149.148 72.6667 147.015 73.6C144.948 74.4667 143.148 74.1333 141.615 72.6L133.515 64.7L133.615 64.6C134.415 65 135.248 65.2 136.115 65.2C137.582 65.2 138.848 64.6667 139.915 63.6C141.048 62.5333 141.615 61.2333 141.615 59.7V27.3C141.615 26.1 142.015 25.1 142.815 24.3C143.682 23.4333 144.715 23 145.915 23C147.115 23 148.115 23.4333 148.915 24.3C149.782 25.1 150.215 26.1 150.215 27.3ZM133.015 32.7L140.915 24.8L141.015 24.9C140.615 25.6333 140.415 26.4333 140.415 27.3V59.7C140.415 60.9 139.982 61.9333 139.115 62.8C138.315 63.6 137.315 64 136.115 64C134.915 64 133.882 63.6 133.015 62.8C132.215 61.9333 131.815 60.9 131.815 59.7V35.8C131.815 34.6 132.215 33.5667 133.015 32.7ZM133.315 9L141.115 1.2L141.215 1.29999C140.682 2.23333 140.415 3.23333 140.415 4.3C140.415 5.83333 140.948 7.13333 142.015 8.19999C143.148 9.26666 144.448 9.8 145.915 9.8C146.982 9.8 148.048 9.46667 149.115 8.8L149.215 8.9L141.815 16.3C140.415 17.7 138.948 18.4 137.415 18.4C135.748 18.4 134.382 17.8667 133.315 16.8C132.315 15.6667 131.815 14.3667 131.815 12.9C131.815 11.3667 132.315 10.0667 133.315 9ZM142.815 1.29999C143.682 0.433331 144.715 -9.53674e-07 145.915 -9.53674e-07C147.115 -9.53674e-07 148.115 0.433331 148.915 1.29999C149.782 2.1 150.215 3.1 150.215 4.3C150.215 5.5 149.782 6.53333 148.915 7.4C148.115 8.2 147.115 8.6 145.915 8.6C144.715 8.6 143.682 8.2 142.815 7.4C142.015 6.53333 141.615 5.5 141.615 4.3C141.615 3.1 142.015 2.1 142.815 1.29999ZM181.91 23C187.91 23 193.01 25.1667 197.21 29.5C201.477 33.7667 203.61 38.9 203.61 44.9V69C203.61 71.2 202.577 72.7333 200.51 73.6C198.443 74.4667 196.61 74.1 195.01 72.5L192.51 70C188.443 72.6667 184.01 74 179.21 74C172.677 74 167.01 71.5 162.21 66.5C157.41 61.5 155.01 55.9667 155.01 49.9L155.11 46.8H155.21C155.943 51.7333 158.01 56 161.41 59.6C164.877 63.2667 169.577 65.1 175.51 65.1C179.243 65.1 182.31 64.2 184.71 62.4C185.843 64.3333 187.443 65.3 189.51 65.3C190.977 65.3 192.243 64.7667 193.31 63.7C194.443 62.5667 195.01 61.2667 195.01 59.8V44.9C195.01 41.3 193.71 38.2 191.11 35.6C188.643 32.9333 185.577 31.6 181.91 31.6C178.31 31.6 175.21 32.9333 172.61 35.6C170.077 38.2667 168.81 41.3667 168.81 44.9C168.81 48.1 169.877 50.8667 172.01 53.2L171.91 53.3C169.643 52.3 167.777 50.6667 166.31 48.4C164.843 46.0667 164.11 43.5667 164.11 40.9C164.11 36.4333 165.61 32.3333 168.61 28.6C171.743 24.8667 176.177 23 181.91 23ZM172.01 24.2L172.11 24.3C169.177 25.9667 166.91 28.3333 165.31 31.4C163.71 34.4 162.91 37.5667 162.91 40.9C162.91 44.7 164.21 48.0667 166.81 51C169.543 53.9333 172.677 55.4 176.21 55.4C179.543 55.4 181.91 54.5 183.31 52.7C184.71 50.9 185.41 49.1 185.41 47.3C185.41 45.1 184.61 43.2333 183.01 41.7C181.477 40.1 179.577 39.3 177.31 39.3C175.71 39.3 174.243 39.7333 172.91 40.6C171.643 41.4 170.71 42.5333 170.11 44H170.01C170.277 40.8667 171.543 38.2333 173.81 36.1C176.077 33.9 178.777 32.8 181.91 32.8C185.243 32.8 188.043 34 190.31 36.4C192.643 38.7333 193.81 41.5667 193.81 44.9V59.8C193.81 61 193.377 62.0333 192.51 62.9C191.71 63.7 190.71 64.1 189.51 64.1C188.443 64.1 187.51 63.7667 186.71 63.1C185.91 62.3667 185.443 61.5 185.31 60.5C183.043 62.7667 179.777 63.9 175.51 63.9C169.643 63.9 164.943 61.9 161.41 57.9C157.943 53.8333 156.21 49.1667 156.21 43.9C156.21 39.4333 157.71 35.3333 160.71 31.6C163.777 27.9333 167.543 25.4667 172.01 24.2Z" fill="#5283CE"/>
</svg>
